# xmcd CD database file
#
# Track frame offsets:
#	150
#	14302
#	30187
#	47102
#	61932
#	76530
#	94647
#	109722
#	129812
#	146652
#	166082
#
# Disc length: 2378 seconds
#
# Revision: 0
# Processed by: cddbd v1.5.1PL0 Copyright (c) Steve Scherf et al.
# Submitted via: CDex 1.50
#
DISCID=7309480b
DTITLE=John Brack - Let's have Church
DYEAR=2003
DGENRE=Country
TTITLE0=Let's have Church
TTITLE1=It's gonna Rain
TTITLE2=Jesus and Mama always loved me
TTITLE3=I shall  wear a crown
TTITLE4=That's no Mountain
TTITLE5=On my way to heaven
TTITLE6=Trail of tears
TTITLE7=When I lay my burden down
TTITLE8=Palms of victory
TTITLE9=He is the I am
TTITLE10=The King's highway
EXTD=YEAR: 2003
EXTT0=
EXTT1=
EXTT2=
EXTT3=
EXTT4=
EXTT5=
EXTT6=
EXTT7=
EXTT8=
EXTT9=
EXTT10=
PLAYORDER=
